# xmcd
#
# Track frame offsets:
#	150
#	18048
#	38538
#	56406
#	67070
#	80933
#	96473
#	115241
#	130212
#	143557
#	159100
#	179822
#	198401
#
# Disc length: 3093 seconds
#
# Revision: 1
# Processed by: cddbd v1.5.2PL0 Copyright (c) Steve Scherf et al.
# Submitted via: audiograbber 1.83.01
#
DISCID=b10c130d
DTITLE=Harmony James - Cautionary Tales
DYEAR=2014
DGENRE=Country
TTITLE0=30,000 Feet
TTITLE1=Cold Western Wind
TTITLE2=Faraway Eyes
TTITLE3=What You Gonna Do About Me
TTITLE4=Skinny Flat White
TTITLE5=Coal Seam Gas
TTITLE6=While You Were Sleeping
TTITLE7=Something Something
TTITLE8=In Another Life
TTITLE9=Winners In War
TTITLE10=Icebergs
TTITLE11=Coming Home Again
TTITLE12=Pancho's Boy
EXTD=
EXTT0=
EXTT1=
EXTT2=
EXTT3=
EXTT4=
EXTT5=
EXTT6=
EXTT7=
EXTT8=
EXTT9=
EXTT10=
EXTT11=
EXTT12=
PLAYORDER=
